# xmcd
#
# Track frame offsets:
#	150
#	14005
#	37967
#	58740
#	85852
#	110189
#	122488
#	139287
#	155824
#	167111
#	185673
#	201047
#	218746
#	238095
#
# Disc length: 3467 seconds
#
# Revision: 0
# Processed by: cddbd v1.5.2PL0 Copyright (c) Steve Scherf et al.
# Submitted via: EasyCDDAExtractor 11.1.0.1
#
DISCID=cf0d890e
DTITLE=Chris O'Connor - Things Are Looking Up
DYEAR=2003
DGENRE=Blues
TTITLE0=Walking My Troubles Away
TTITLE1=Kikuyu Blues
TTITLE2=2:18
TTITLE3=Roll And Tumble
TTITLE4=Leadbelly Water Medley: Ain't Goin' Down To The Well No More Sylvie/Ol
TTITLE4=d Riley
TTITLE5=Maria Rag
TTITLE6=Frankie And Albert
TTITLE7=Big Road Blues
TTITLE8=Angela
TTITLE9=Mama 'tain't Long 'fore Day
TTITLE10=Things Are Looking Up
TTITLE11=Going To Brownsville
TTITLE12=Malted Milk
TTITLE13=EH Holden Blues
EXTD=
EXTT0=
EXTT1=
EXTT2=
EXTT3=
EXTT4=
EXTT5=
EXTT6=
EXTT7=
EXTT8=
EXTT9=
EXTT10=
EXTT11=
EXTT12=
EXTT13=
PLAYORDER=
